<?xml version="1.0" standalone="no"?>
<!DOCTYPE svg PUBLIC "-//W3C//DTD SVG 20010904//EN"
 "http://www.w3.org/TR/2001/REC-SVG-20010904/DTD/svg10.dtd">
<svg version="1.0" xmlns="http://www.w3.org/2000/svg"
 width="1000.000000pt" height="662.000000pt" viewBox="0 0 1000.000000 662.000000"
 preserveAspectRatio="xMidYMid meet">
<metadata>
Created by potrace 1.16, written by Peter Selinger 2001-2019
</metadata>
<g transform="translate(0.000000,662.000000) scale(0.100000,-0.100000)"
fill="#000000" stroke="none">
<path d="M4391 5192 c-1 -7 -5 -11 -10 -8 -5 3 -12 -6 -15 -20 -6 -22 -9 -24
-22 -13 -8 7 -12 18 -10 26 5 11 -4 13 -37 11 -37 -3 -42 -6 -41 -26 0 -15 -4
-21 -12 -18 -7 3 -15 0 -18 -7 -3 -9 -5 -9 -5 1 -1 6 -8 12 -17 12 -11 0 -14
-5 -10 -16 3 -9 9 -28 13 -42 6 -24 4 -25 -10 -14 -9 8 -13 20 -10 28 5 13 -4
16 -34 13 -5 0 -7 -10 -5 -21 4 -35 -20 -40 -51 -10 -17 16 -26 20 -22 10 4
-9 2 -19 -4 -23 -6 -3 -11 -1 -11 4 0 6 -5 11 -11 11 -8 0 -8 -5 1 -15 10 -12
15 -13 28 -3 12 11 16 10 20 0 2 -7 16 -18 31 -24 14 -6 21 -12 14 -15 -9 -3
-7 -16 9 -46 11 -23 21 -44 20 -47 0 -3 2 -7 5 -10 3 -3 3 10 0 28 l-6 32 65
0 c36 0 75 -5 87 -12 20 -10 21 -10 8 5 -12 15 -11 17 8 17 11 0 21 -5 21 -11
0 -6 7 -3 16 5 18 19 74 22 74 4 0 -6 9 -2 20 10 12 12 27 22 34 22 8 0 14 11
14 25 0 20 -6 25 -27 26 -14 1 -30 1 -34 0 -4 -1 -15 12 -25 29 -9 16 -25 33
-35 36 -14 4 -16 9 -7 20 7 7 10 19 7 26 -4 10 -6 10 -6 0z"/>
<path d="M4205 4610 c-6 -19 -28 -25 -82 -23 -19 1 -16 -25 5 -36 28 -16 3
-30 -63 -33 l-60 -3 55 -12 c30 -6 72 -14 92 -18 32 -5 41 -13 68 -61 26 -45
33 -69 38 -136 4 -60 2 -79 -6 -74 -14 8 -64 -42 -56 -55 3 -5 0 -9 -5 -9 -6
0 -11 -9 -11 -20 0 -11 5 -20 11 -20 5 0 7 -5 3 -12 -4 -7 -7 -29 -5 -50 1
-30 -2 -38 -15 -38 -10 0 -14 -6 -11 -14 6 -15 -31 -36 -63 -36 -10 0 -21 -4
-24 -9 -3 -5 15 -6 39 -3 37 4 45 2 45 -12 0 -9 6 -16 13 -16 9 0 9 -2 -1 -9
-10 -6 -9 -11 4 -22 12 -9 15 -10 10 -1 -4 7 -2 12 7 12 8 0 17 -11 19 -24 3
-17 1 -23 -8 -19 -14 5 -8 -33 7 -43 5 -3 6 2 3 10 -9 24 19 19 35 -5 11 -18
11 -23 -1 -30 -8 -6 -1 -8 21 -7 21 2 35 -2 37 -10 1 -7 0 -8 -2 -3 -6 11 -44
2 -44 -10 0 -5 5 -9 11 -9 5 0 7 -5 3 -11 -3 -6 -15 -8 -26 -6 -11 3 -23 -2
-30 -13 -9 -14 -17 -16 -42 -9 -44 13 -54 11 -73 -11 -17 -20 -39 -28 -29 -11
3 5 -5 8 -19 7 -18 -1 -23 -5 -19 -18 2 -9 1 -19 -5 -22 -5 -3 -7 -16 -3 -28
3 -14 2 -19 -6 -14 -7 4 -12 2 -12 -3 0 -6 5 -11 10 -11 7 0 7 -6 1 -19 -8
-14 -7 -20 3 -24 15 -6 16 -23 3 -44 -5 -8 -3 -13 6 -13 10 0 15 -12 15 -42 0
-24 1 -48 1 -54 1 -10 101 -79 101 -70 0 2 -6 19 -14 37 -24 60 -29 133 -12
191 16 57 57 103 82 94 9 -3 12 -1 9 5 -4 6 1 16 11 24 13 9 21 10 26 2 4 -8
11 -7 22 2 13 11 17 11 22 -3 8 -20 24 -21 24 -2 0 21 30 43 39 28 5 -8 15
-10 27 -5 16 6 17 4 7 -8 -17 -21 19 -42 80 -45 42 -3 47 -1 36 12 -10 12 -6
14 26 9 36 -4 73 -29 103 -67 7 -9 20 -24 29 -34 18 -18 24 -45 25 -114 2 -51
-25 -111 -66 -149 -14 -14 -26 -28 -26 -32 0 -13 34 3 48 23 13 18 38 26 27 8
-3 -5 -1 -10 5 -10 6 0 34 23 61 51 40 41 47 54 38 65 -9 12 -9 13 2 9 10 -4
15 1 15 15 0 13 -5 19 -13 16 -7 -3 -13 2 -13 10 0 10 6 13 19 9 15 -5 18 -1
14 20 -3 13 -9 22 -14 19 -5 -3 -19 -2 -31 2 -19 6 -19 7 -5 16 27 14 20 28
-11 22 -19 -4 -32 -1 -41 10 -13 16 -6 40 9 31 5 -3 11 -2 14 3 2 4 -14 23
-36 42 -78 67 -88 79 -88 107 0 15 4 35 9 43 16 24 2 30 -34 14 -20 -8 -73
-15 -124 -16 -87 -2 -92 -1 -128 28 -22 18 -52 60 -75 105 -63 123 -50 185 55
281 l51 47 -27 21 c-25 20 -117 192 -117 219 0 18 50 85 77 102 l25 17 -33 7
c-19 3 -42 9 -51 11 -10 3 -19 -3 -23 -16z"/>
<path d="M4710 4535 c-8 -14 -24 -28 -37 -31 -14 -4 -24 -14 -24 -28 -1 -11
-2 -30 -3 -41 -1 -11 3 -33 8 -49 8 -24 6 -32 -12 -47 -27 -22 -28 -32 -2 -24
18 6 24 -2 22 -26 -1 -3 15 -21 35 -40 33 -32 35 -33 28 -9 -12 40 -13 35 31
226 19 83 18 94 -9 94 -15 0 -29 -9 -37 -25z"/>
<path d="M6614 4435 c-4 -8 -11 -15 -18 -15 -6 0 -12 -9 -13 -20 -1 -11 2 -18
7 -15 5 3 2 -8 -6 -25 -9 -17 -20 -27 -26 -24 -6 4 -9 1 -6 -7 3 -8 14 -12 24
-11 10 2 16 0 11 -4 -9 -9 23 -45 34 -38 5 3 9 1 9 -5 0 -9 24 -21 43 -21 4 0
22 -7 39 -16 50 -26 140 -44 155 -32 9 7 13 7 13 -2 0 -9 20 -11 78 -7 118 7
176 22 168 42 -3 9 0 12 8 9 7 -3 20 2 29 10 9 9 21 14 29 13 7 -2 10 -2 5 0
-13 8 3 22 18 16 11 -3 15 2 15 18 l0 22 -22 -19 c-13 -11 -36 -21 -53 -22
-28 -2 -28 -1 -7 8 12 5 22 11 22 14 0 3 -10 4 -22 4 -26 -2 -50 -17 -44 -27
3 -4 -5 -8 -17 -8 -13 -1 -17 1 -10 5 15 9 12 34 -6 56 -7 9 -12 16 -10 17 38
7 49 7 54 -1 3 -5 12 -7 20 -4 8 4 12 11 9 16 -4 6 -1 9 6 6 20 -6 24 -28 6
-28 -9 0 -16 -4 -16 -8 0 -5 14 -6 31 -4 22 3 27 7 18 13 -8 5 -10 9 -5 9 5 0
3 7 -4 15 -15 18 1 20 19 3 10 -11 11 -10 6 5 -5 12 -2 17 9 17 9 0 16 4 16
10 0 14 -38 32 -58 27 -16 -4 -16 -5 1 -6 9 0 17 -8 17 -16 0 -12 -4 -13 -19
-5 -26 13 -34 13 -25 -2 5 -8 2 -9 -9 -5 -11 4 -17 1 -17 -9 0 -8 -4 -13 -9
-9 -5 3 -12 1 -16 -4 -3 -6 -12 -8 -20 -5 -8 4 -12 10 -9 15 7 12 -7 11 -26
-1 -10 -6 -11 -10 -2 -10 6 0 12 -8 12 -17 0 -14 -2 -15 -9 -4 -7 11 -9 11
-14 0 -3 -8 -6 -2 -6 14 -1 16 -7 27 -15 27 -8 0 -17 5 -19 10 -3 6 -4 5 -3
-2 1 -7 -10 -26 -26 -43 -15 -16 -28 -33 -28 -38 0 -9 -51 2 -68 16 -9 7 -9
13 -1 23 9 11 8 14 -5 14 -9 0 -16 -4 -16 -10 0 -5 -7 -10 -15 -10 -8 0 -15 5
-15 10 0 6 -6 10 -13 10 -8 0 -22 9 -31 19 -13 15 -14 20 -4 24 7 3 3 6 -9 6
-17 1 -21 -4 -18 -19 3 -17 1 -19 -16 -10 -10 6 -19 15 -19 21 0 11 -53 0 -58
-13 -8 -20 -18 -5 -14 22 4 31 -4 41 -14 15z"/>
<path d="M6590 4113 c0 -18 6 -23 24 -23 35 0 42 -18 10 -26 l-28 -7 29 -22
c15 -13 24 -28 21 -34 -13 -20 3 -32 26 -20 13 7 18 7 14 0 -6 -9 76 -40 113
-42 12 0 10 -3 -4 -9 -17 -7 -15 -9 12 -9 24 -1 31 -5 27 -15 -4 -10 1 -14 13
-14 10 1 35 -2 56 -6 48 -9 113 2 98 17 -6 6 -11 16 -11 21 0 6 5 5 12 -2 7
-7 21 -12 32 -11 12 0 15 3 9 6 -18 7 -16 23 2 23 9 0 15 10 15 26 0 29 -25
60 -35 44 -9 -15 -19 -12 -33 11 -8 12 -9 18 -4 15 5 -3 30 -7 56 -7 25 -1 46
-6 46 -11 0 -4 -5 -8 -11 -8 -5 0 -7 -5 -4 -10 11 -18 24 0 22 29 -1 16 -5 27
-10 24 -4 -2 -10 2 -13 10 -3 9 -23 14 -57 16 -29 1 -56 7 -62 14 -16 19 -43
19 -76 0 -26 -16 -31 -16 -39 -3 -7 11 -10 11 -10 2 0 -10 -5 -10 -22 -1 -29
15 -89 29 -83 19 7 -11 -48 -9 -62 2 -8 6 -13 7 -13 1 0 -15 -40 -8 -51 8 -7
11 -9 9 -9 -8z"/>
<path d="M5790 3442 c-8 -3 -21 -12 -28 -21 -8 -9 -11 -11 -8 -4 4 7 -1 11
-12 10 -13 -1 -18 -7 -14 -19 2 -10 -1 -18 -7 -18 -13 0 -14 -20 -1 -40 6 -10
12 -12 20 -4 16 16 70 5 63 -12 -7 -19 -23 -18 -40 4 -12 15 -13 15 -10 -8 2
-14 2 -19 0 -12 -3 6 -14 12 -25 12 -16 0 -18 -3 -9 -14 6 -7 9 -21 5 -30 -5
-14 3 -16 62 -16 49 0 65 3 54 10 -13 8 -11 11 8 16 12 4 23 14 24 23 0 9 2
21 3 26 2 6 4 15 5 20 1 6 1 15 0 20 -1 6 2 7 6 3 8 -9 34 9 34 23 0 5 -15 9
-34 9 -19 0 -37 4 -40 9 -8 12 -38 19 -56 13z"/>
<path d="M4144 3295 c3 -8 1 -15 -3 -15 -5 0 -7 -9 -4 -20 5 -17 0 -20 -31
-20 -30 0 -36 3 -37 23 0 15 -2 17 -6 7 -3 -8 -10 -17 -14 -21 -5 -3 14 -13
42 -23 28 -10 47 -21 42 -25 -11 -8 -13 -41 -2 -41 5 0 9 5 9 10 0 6 5 10 10
10 15 0 12 -28 -6 -55 -22 -33 -15 -45 44 -77 58 -31 105 -75 96 -89 -3 -5 -2
-9 3 -8 20 3 25 -2 13 -16 -6 -8 -8 -20 -4 -26 5 -9 10 -7 15 7 5 13 8 14 8 4
1 -8 -18 -37 -42 -63 -40 -46 -45 -49 -106 -54 -51 -5 -60 -8 -45 -17 11 -6
24 -11 29 -11 6 0 10 -8 10 -18 0 -10 5 -21 10 -25 17 -12 16 -39 -1 -46 -12
-5 -14 -13 -10 -32 6 -22 4 -25 -9 -20 -12 4 -15 1 -13 -13 2 -10 -3 -25 -11
-34 -20 -25 10 -33 49 -14 27 14 35 14 65 1 19 -8 35 -11 35 -7 0 5 15 8 33 8
21 0 34 -6 39 -18 6 -15 11 -16 29 -7 11 6 28 9 37 5 13 -5 13 -2 -3 15 -10
11 -24 20 -30 20 -7 0 -18 7 -25 15 -11 13 -8 15 19 15 17 0 31 -4 31 -9 0 -5
10 -11 23 -13 26 -3 37 -46 15 -59 -10 -7 -9 -9 3 -9 22 0 41 24 34 42 -4 11
2 17 19 20 26 5 26 4 26 -57 0 -51 -4 -65 -23 -83 -15 -15 -30 -20 -47 -16
-19 4 -22 3 -10 -5 17 -11 14 -16 -17 -25 -14 -5 -23 -3 -23 3 0 6 5 11 12 11
6 0 9 2 6 5 -12 13 -38 -8 -33 -26 4 -13 1 -19 -8 -19 -8 0 -34 -9 -58 -21
l-44 -20 84 6 c161 11 268 42 399 114 98 54 117 88 76 138 l-24 28 -19 -25
c-19 -23 -21 -24 -37 -8 -16 16 -16 18 0 43 9 14 21 23 26 20 6 -4 10 -1 10 4
0 6 -4 11 -10 11 -5 0 -1 13 8 30 31 53 4 55 -73 4 -96 -63 -156 -84 -237 -84
-37 0 -69 4 -72 9 -3 5 -14 7 -24 5 -13 -4 -27 15 -62 82 l-45 86 30 22 c44
31 137 125 131 134 -8 13 20 30 35 21 23 -15 34 -10 13 6 -18 13 -18 14 5 8
19 -5 23 -3 18 10 -7 19 68 53 87 38 12 -10 86 -26 86 -19 0 3 -29 26 -64 52
-91 67 -101 80 -99 132 1 24 -3 46 -8 49 -5 4 -9 2 -9 -3 0 -26 -193 -45 -203
-19 -4 9 -6 9 -6 0 -1 -13 -103 41 -109 58 -2 4 -10 5 -18 2 -8 -3 -14 0 -14
6 0 6 -5 11 -11 11 -6 0 -9 -7 -5 -15z"/>
<path d="M4645 2368 c-200 -52 -492 -58 -667 -12 -33 8 -62 13 -65 10 -6 -6
194 -66 220 -65 4 0 15 -7 23 -16 9 -8 24 -15 35 -15 13 0 24 -10 31 -31 6
-16 13 -28 15 -25 3 3 15 0 27 -6 11 -6 32 -12 46 -13 14 -1 40 -5 58 -9 21
-5 32 -4 32 4 0 6 4 8 10 5 6 -4 7 1 3 11 -5 14 -3 16 12 11 15 -6 16 -5 5 8
-17 21 -14 23 50 28 30 3 62 7 70 11 8 3 26 7 40 10 63 11 124 51 99 66 -8 5
5 17 37 34 60 31 57 30 -81 -6z"/>
<path d="M3817 1769 c-5 -17 -3 -18 9 -8 8 6 18 9 21 5 4 -4 1 -11 -6 -16 -8
-4 -11 -15 -8 -24 13 -33 -11 -23 -34 14 -13 22 -30 40 -37 40 -26 0 17 -57
65 -89 26 -17 55 -36 63 -43 8 -7 20 -12 27 -10 21 5 35 -37 29 -91 -3 -29 -5
-60 -6 -70 0 -10 -5 -15 -10 -12 -6 4 -8 11 -5 16 3 5 -1 6 -9 3 -17 -7 -22
11 -6 21 6 3 10 13 10 21 0 8 -4 14 -10 14 -5 0 -10 -9 -10 -20 0 -11 -7 -20
-16 -20 -9 0 -13 5 -9 13 4 6 -4 0 -17 -15 -26 -31 -38 -35 -38 -13 0 7 -8 19
-17 24 -11 6 -13 11 -5 11 7 0 10 5 7 10 -5 8 -12 7 -22 -1 -12 -10 -19 -10
-35 0 -11 7 -22 10 -25 7 -3 -3 -15 4 -25 16 -12 14 -22 18 -26 12 -7 -11 -41
-31 -92 -55 -14 -6 -50 -12 -80 -13 l-55 -1 -1 45 c-2 40 -1 43 12 25 7 -11
18 -25 24 -32 5 -7 10 -17 10 -23 0 -5 5 -10 10 -10 14 0 12 23 -2 39 -11 11
-10 14 0 18 6 3 10 8 7 13 -3 5 12 11 33 15 57 9 69 19 49 40 -14 13 -17 14
-17 2 0 -9 -12 -17 -29 -19 -17 -2 -28 -1 -26 3 6 8 -35 20 -47 13 -4 -3 -8
-13 -8 -22 1 -15 2 -15 15 2 15 20 20 10 9 -18 -5 -12 -10 -13 -25 -5 -25 13
-44 2 -29 -16 8 -9 7 -14 -4 -18 -8 -3 -17 -1 -20 6 -3 9 -5 9 -5 0 -1 -6 4
-15 9 -18 6 -3 10 -14 9 -23 0 -11 -3 -12 -6 -4 -2 6 -11 12 -19 12 -8 0 -11
-6 -8 -15 4 -10 0 -15 -11 -15 -9 0 -31 -11 -49 -25 -18 -14 -36 -25 -39 -25
-9 0 -96 -60 -102 -71 -4 -5 -11 -6 -17 -3 -7 4 -8 2 -4 -4 4 -7 -9 -19 -33
-32 -52 -26 -54 -26 -46 11 6 24 4 30 -6 27 -8 -3 -13 -17 -12 -34 2 -23 -4
-33 -27 -46 -17 -9 -30 -13 -30 -8 0 6 -5 10 -10 10 -6 0 -10 -6 -8 -14 2 -8
-5 -21 -15 -28 -21 -15 -14 -48 10 -48 13 0 13 -3 2 -16 -8 -10 -15 -12 -17
-5 -2 6 -8 9 -13 5 -13 -7 0 -56 19 -71 9 -7 12 -16 9 -20 -4 -4 -13 -1 -19 5
-16 16 -33 15 -20 -1 6 -7 8 -26 4 -46 l-7 -33 -19 21 c-25 28 -29 27 -90 -14
-29 -19 -62 -35 -72 -35 -10 0 -26 -5 -34 -10 -12 -7 -11 -13 10 -34 13 -15
27 -26 31 -26 5 0 29 -20 53 -45 25 -25 43 -45 40 -45 -2 0 1 -10 8 -22 23
-41 36 -88 27 -94 -8 -4 -6 -63 1 -84 2 -3 2 -8 1 -12 0 -5 6 -8 15 -8 8 0 12
-5 9 -10 -3 -6 1 -13 9 -16 9 -3 13 -11 10 -16 -4 -6 -1 -8 7 -6 8 3 23 1 33
-5 15 -7 22 -5 32 7 8 11 14 13 19 7 3 -7 46 -10 106 -10 55 1 102 -1 106 -4
3 -3 15 -2 28 3 14 5 31 4 47 -4 13 -7 33 -10 43 -6 22 8 80 3 104 -9 9 -4 44
-7 79 -7 37 1 62 -3 62 -9 0 -5 4 -4 9 4 5 7 25 13 45 13 20 0 36 5 36 10 0 6
6 5 15 -2 13 -11 14 -10 9 5 -6 15 -4 16 16 5 15 -8 20 -8 15 -1 -4 7 6 16 24
22 17 6 31 15 31 20 0 5 7 9 15 9 8 0 22 17 30 37 13 30 18 35 25 23 8 -13 10
-12 10 2 0 10 9 22 20 28 11 6 22 21 25 33 4 13 22 31 43 41 20 10 45 22 54
27 10 5 27 9 38 9 12 0 19 3 17 8 -3 4 18 7 46 6 29 0 60 4 69 8 9 4 19 4 22
-1 3 -5 32 -7 63 -4 32 3 64 5 71 6 6 0 12 4 12 9 0 5 5 6 10 3 6 -3 10 -1 10
6 0 7 8 5 20 -6 11 -10 20 -14 20 -9 0 5 7 1 14 -9 17 -23 69 -32 93 -17 15 9
14 10 -7 5 -18 -5 -14 0 15 18 28 18 42 22 47 14 5 -8 8 -4 8 9 0 11 18 40 40
64 22 24 40 50 40 59 0 12 -3 12 -12 3 -18 -18 -30 -14 -23 7 7 22 -4 53 -16
45 -5 -3 -9 0 -9 5 0 6 7 11 15 11 12 0 13 4 5 19 -13 25 -13 34 0 26 6 -3 10
0 11 7 0 7 2 23 3 35 1 12 0 20 -4 18 -4 -2 -12 7 -18 20 -7 15 -8 26 -2 30
16 10 -16 35 -44 35 -14 0 -43 -7 -65 -16 -22 -9 -47 -14 -56 -12 -14 2 -11 8
11 28 16 14 22 17 15 8 -7 -10 -10 -18 -5 -18 16 0 39 19 39 31 0 7 16 14 35
16 73 7 80 8 80 16 0 4 7 7 15 7 8 0 15 5 15 10 0 6 -4 10 -9 10 -5 0 -7 10
-3 22 3 14 2 19 -6 14 -13 -8 -13 -8 -17 50 -3 38 -1 41 31 53 39 14 42 21 14
39 -11 7 -20 21 -20 32 0 12 -5 17 -14 14 -7 -3 -16 3 -20 12 -9 23 -3 26 29
14 24 -9 26 -9 16 4 -7 8 -9 21 -5 27 5 8 3 9 -6 4 -7 -4 -16 -2 -21 6 -7 11
-9 11 -9 -2 0 -9 -9 -19 -20 -22 -14 -4 -18 -11 -14 -24 5 -16 4 -16 -11 2
-15 19 -75 29 -75 13 0 -4 -6 -5 -13 -2 -7 2 -27 -2 -43 -11 -40 -20 -48 -19
-64 10 -15 29 -46 35 -36 8 4 -13 1 -12 -13 5 -11 12 -30 22 -43 22 -20 -1
-21 -2 -8 -13 8 -7 16 -19 18 -27 2 -8 8 -16 13 -18 11 -5 11 -23 0 -41 -15
-23 -41 5 -41 43 0 32 -19 77 -20 46 0 -9 -3 -11 -8 -5 -4 6 -16 11 -27 13
-76 11 -92 12 -113 7 -12 -3 -20 -10 -17 -15 3 -6 2 -10 -3 -10 -6 0 -13 7
-16 16 -3 8 -2 12 4 9 6 -3 10 0 10 8 0 18 -22 24 -83 22 -32 -2 -47 1 -44 9
2 6 -5 20 -17 32 -12 11 -22 26 -24 34 -2 8 -13 22 -25 32 -12 10 -27 22 -34
28 -20 16 -40 12 -46 -11z m-309 -546 c2 -21 7 -42 12 -47 6 -6 10 -23 10 -38
0 -16 9 -54 19 -86 32 -97 34 -148 6 -227 -13 -39 -24 -66 -24 -61 -1 12 -31
-14 -31 -26 0 -6 8 -4 18 3 15 13 16 12 4 -3 -11 -13 -28 -16 -83 -15 -38 1
-69 5 -69 9 0 4 -7 5 -15 2 -8 -4 -12 -11 -8 -17 3 -6 1 -7 -6 -3 -6 4 -9 12
-6 17 9 13 -19 11 -35 -3 -11 -10 -11 -9 0 6 14 18 13 19 -4 13 -17 -7 -17 -6
-5 9 12 15 12 16 -8 10 -12 -4 -24 -2 -28 4 -9 14 -42 13 -47 -2 -3 -7 -7 -5
-11 6 -4 9 -3 15 2 11 5 -3 12 -1 16 5 3 5 -3 10 -14 10 -11 0 -23 5 -27 12
-5 7 -3 8 5 3 7 -4 5 5 -4 19 -30 46 -52 51 -90 22 -40 -31 -62 -34 -38 -6 10
11 22 20 28 20 15 0 55 55 55 77 1 10 11 38 23 63 17 35 40 56 107 101 123 80
233 149 240 149 3 0 7 -17 8 -37z"/>
<path d="M2776 1445 c-14 -13 -26 -20 -26 -15 0 5 -7 7 -15 3 -9 -3 -22 2 -30
13 -7 11 -17 15 -22 11 -10 -11 -11 -50 -1 -58 5 -3 1 -14 -7 -25 -13 -17 -14
-17 -15 -1 0 9 -4 17 -10 17 -5 0 -10 7 -10 15 0 22 -27 18 -40 -5 -11 -20 5
-60 23 -60 5 0 5 -9 2 -20 -4 -11 -2 -20 4 -20 10 0 16 21 12 43 0 4 10 7 23
7 16 0 27 7 31 20 3 11 11 20 16 20 6 0 7 -6 3 -12 -5 -9 -2 -8 10 1 13 11 14
16 4 24 -9 6 -7 7 6 3 10 -4 24 -1 32 5 9 7 18 7 31 0 14 -8 15 -11 3 -12 -8
-1 -22 -1 -30 0 -13 2 -13 1 0 -8 8 -5 11 -14 6 -18 -5 -4 -11 -2 -13 5 -9 24
-25 12 -19 -14 6 -21 4 -25 -8 -21 -30 12 -35 -48 -6 -73 19 -17 19 -18 1 -38
-10 -12 -21 -19 -24 -16 -3 4 -5 -6 -4 -20 1 -15 13 -36 27 -47 18 -14 20 -17
6 -12 -16 5 -18 3 -12 -12 4 -11 2 -22 -6 -27 -23 -14 -30 -9 -25 17 4 25 4
25 -13 8 -12 -12 -14 -20 -6 -25 6 -4 12 -15 13 -25 5 -45 11 -58 29 -62 15
-3 16 -1 6 12 -10 12 -10 16 3 21 13 5 19 -5 16 -26 -2 -18 27 6 32 25 2 12 8
29 11 38 4 10 0 23 -9 33 -12 12 -13 16 -3 16 7 1 0 12 -17 25 l-30 25 23 16
c15 11 22 23 19 35 -3 12 -1 17 6 13 7 -3 4 1 -7 10 -17 14 -17 16 -2 31 9 9
16 21 16 26 0 5 7 9 15 9 8 0 15 5 15 11 0 19 25 37 53 37 15 0 27 -4 27 -9 0
-5 7 -6 17 -2 13 5 15 2 11 -15 -4 -13 -1 -22 5 -22 7 0 6 -5 -2 -12 -11 -10
-14 -10 -18 0 -3 6 -14 12 -24 12 -11 0 -17 4 -14 10 3 5 0 7 -9 4 -27 -11
-31 -54 -4 -54 7 0 6 6 -2 15 -10 12 -9 15 8 15 11 0 25 -7 32 -15 9 -10 9
-15 1 -15 -6 0 -11 -4 -11 -10 0 -5 8 -6 18 -3 15 6 15 5 3 -10 -9 -12 -10
-17 -2 -17 6 0 14 14 18 31 3 19 9 26 13 19 5 -9 9 -9 14 -1 4 6 3 11 -3 11
-10 0 -6 73 5 91 4 7 -1 9 -12 7 -11 -2 -18 -8 -17 -14 1 -5 -12 -9 -28 -9
-16 0 -29 4 -29 9 0 4 -7 5 -16 2 -15 -6 -15 -4 -3 10 8 10 15 12 17 5 6 -18
29 -13 35 8 6 25 -2 34 -20 19 -11 -8 -12 -7 -7 6 4 11 1 16 -10 16 -9 0 -16
5 -16 10 0 19 -37 10 -64 -15z"/>
</g>
</svg>
